<svg width="1440" height="240" viewBox="0 0 1440 240" fill="none" xmlns="http://www.w3.org/2000/svg">
<path fill-rule="evenodd" clip-rule="evenodd" d="M759.341 146.057L605.065 156.845L351.555 -379.474L529.874 -391.944L668.788 -66.105L758.855 -407.956L934.312 -420.225L759.341 146.057Z" fill="#ECECEC"/>
<path fill-rule="evenodd" clip-rule="evenodd" d="M299.141 -378.951L307.813 -254.938L-17.0547 -232.221L-10.8152 -142.991L288.721 -163.937L297.393 -39.9237L-2.14334 -18.9781L4.15578 71.1037L338.182 47.7463L346.854 171.759L-157.692 207.041L-196.246 -344.31L299.141 -378.951Z" fill="#ECECEC"/>
<path fill-rule="evenodd" clip-rule="evenodd" d="M1469.82 -454.796L1478.49 -330.783L1153.63 -308.066L1159.87 -218.836L1459.4 -239.782L1468.07 -115.768L1168.54 -94.8227L1174.84 -4.74101L1508.86 -28.0984L1517.53 95.9148L1012.99 131.196L974.435 -420.155L1469.82 -454.796Z" fill="#ECECEC"/>
</svg>
